<svg id="e1xfjwNOC7y1" xmlns="http://www.w3.org/2000/svg" xmlns:xlink="http://www.w3.org/1999/xlink" viewBox="0 0 380 380" shape-rendering="geometricPrecision" text-rendering="geometricPrecision"><ellipse rx="171.000201" ry="104.427604" transform="matrix(1 0 0 1.425625 190.000018 217.93074)" fill="#fff" stroke-width="0"/><path d="M329.397148,194.269987l-5.362697,15.723449l10.901333,39.115108l34.367179,17.829657l35.334827-17.395262l10.144489-35.204149-17.609771-33.783765-38.329383-6.059741-29.445977,19.774703Z" transform="matrix(1.139636 0 0 1-232.298694-30.716742)" fill="#fff" stroke="#fff" stroke-width="1.472"/><path d="M225.530524,193.351942c0,0-.000002-33.942272,23.845922-61.204885s33.890171-33.106634,59.158445-45.260239s52.175596-12.153606,52.175596-12.153606s24.220622-.542669,41.846529,2.904635c10.94305,2.14026,23.04961,6.802962,33.546995,11.159922c11.417476,4.738846,21.811789,11.765588,27.771033,15.707595c20.667337,13.671329,37.251801,35.220781,44.069766,49.60105s6.294885,39.245528,6.294885,39.245528l-84.458344.000001c0,0-6.93453-21.417997-16.281285-28.201386-4.948027-3.591021-12.723936-9.381988-21.632075-12.489969-7.919213-2.762952-16.443492-3.540525-22.460248-3.249124-12.784865.61919-25.804423,3.828833-35.604581,9.998206-4.556877,2.868635-9.474661,6.341216-14.663586,13.745981-5.513869,7.868469-10.604685,20.196289-10.604685,20.196289l-83.004367.000002Z" transform="matrix(1.094348 0 0 1.217704-214.783008-59.809701)" fill="#fb0505" stroke="#fa0006" stroke-width="1.472"/><path d="M199.618423,284.247437c-13.746185-36.180207-15.986907-72.759095-6.265899-109.752152c13.650604-51.94709,44.704437-90.630165,91.908462-115.9076c30.495606-16.330174,63.346558-22.764653,97.97934-20.036919c37.512543,2.954552,70.997314,16.098736,100.051117,39.836327c37.486145,30.626998,59.917724,70.059852,66.043213,118.217384c6.417175,50.450638-6.322327,96.065842-37.921875,135.712387-32.043183,40.203064-74.139374,63.29541-125.578125,67.939423-50.201142,4.532318-94.909363-9.635529-133.576874-41.982026-23.830383-19.934906-41.418732-44.538452-52.639359-74.026824M403.954407,63.437218c-2.305023-.333485-4.622254-.599232-6.913208-1.010937-22.791352-4.095863-45.379822-3.036133-67.77536,2.680538-23.462708,5.989082-44.36557,16.909462-62.853211,32.552735-31.816162,26.921157-50.145035,61.067329-55.508804,102.364463-.617508,4.75438.809997,5.78357,5.105575,5.766739c26.157395-.1026,52.315613.014862,78.473175-.067688c8.000947-.025253,8.402894-.536484,10.953125-8.10617c4.585934-13.612175,13.543-25.556447,25.396702-33.800408c13.841302-9.626288,31.632082-14.207311,51.024807-10.507286c25.899719,4.941513,43.559784,20.625565,51.686951,46.088745c1.355957,4.248383,3.424652,5.565064,7.767487,5.750183c25.148895,1.07193,50.307739.195053,75.457214.670807c11.743225.222168,11.840393.013596,10.050415-11.54895-6.095825-39.376495-24.786896-71.669113-55.116455-97.310692-19.577301-16.551262-42.1828-27.116333-67.748413-33.522079m-84.603668,201.69062c-6.97461-7.625061-12.196808-16.338837-14.837281-26.303406-1.206939-4.554809-3.440002-5.580459-7.742309-5.480255-27.648041.643952-55.301178.995636-82.953385.104767-.99382-.032013-2.023346-.019668-2.946792,1.416031c1.512558,19.077286,6.893295,37.480148,15.509613,54.940384c29.088714,58.945862,92.057708,94.55069,157.404205,88.184357c37.409668-3.644654,69.684296-18.436249,96.539154-44.45755c25.945618-25.140259,41.560394-55.861023,46.667572-91.782288c1.092346-7.682953.663025-8.474411-7.061035-8.283249-26.320831.651474-52.641205.762817-78.955292-.117355-3.934234-.131592-5.550567,1.343902-6.582733,4.978607-3.104431,10.932297-8.73053,20.537964-16.72168,28.610321-26.484771,26.754089-70.148376,28.014892-98.320037-1.810364m27.15448-5.102386c17.459625,8.978576,34.628112,8.356201,50.370117-3.331971c15.536682-11.535766,21.681305-27.6371,17.775634-46.700042-3.742065-18.264038-15.293304-30.156952-33.122436-35.102692-18.110565-5.023804-34.402649-.418335-46.72406,13.663147-20.040711,22.903519-14.798401,54.310196,11.700745,71.471558Z" transform="translate(-179.171653-29.512398)"/><path d="M354.258484,201.157242c15.962463-10.459046,33.783172-4.142471,38.1203,13.181549c2.529755,10.104874-2.440338,20.915024-12.007355,26.116455-9.503662,5.166992-21.266876,3.042389-28.651275-5.17482-7.221283-8.035706-8.216644-19.990829-2.265747-28.600784c1.312408-1.898819,3.004791-3.534973,4.804077-5.5224Z" transform="translate(-179.302944-29.67749)"/></svg>
